<mxfile modified="2020-05-26T06:55:04.245Z" host="diagram.qzrok.cn" agent="Mozilla/5.0 (Windows NT 10.0; Win64; x64) AppleWebKit/537.36 (KHTML, like Gecko) Chrome/80.0.3987.149 Safari/537.36" etag="oqVQK-fZcZFHrLNphHRg" version="12.9.3" type="github">
  <diagram id="WI9T0HZ2pTsCkuznbFz-" name="Page-1">
    <mxGraphModel dx="1673" dy="934" grid="1" gridSize="10" guides="1" tooltips="1" connect="1" arrows="1" fold="1" page="1" pageScale="1" pageWidth="1169" pageHeight="827" math="0" shadow="0">
      <root>
        <mxCell id="0" />
        <mxCell id="1" parent="0" />
        <mxCell id="qZe3JoyMZ883tMN5COdx-31" value="" style="group" vertex="1" connectable="0" parent="1">
          <mxGeometry x="30" y="40" width="440" height="210" as="geometry" />
        </mxCell>
        <mxCell id="qZe3JoyMZ883tMN5COdx-15" value="" style="group" vertex="1" connectable="0" parent="qZe3JoyMZ883tMN5COdx-31">
          <mxGeometry width="440" height="210" as="geometry" />
        </mxCell>
        <mxCell id="qZe3JoyMZ883tMN5COdx-3" value="" style="whiteSpace=wrap;html=1;dashed=1;dashPattern=1 1;strokeColor=#99CCFF;" vertex="1" parent="qZe3JoyMZ883tMN5COdx-15">
          <mxGeometry width="440" height="210" as="geometry" />
        </mxCell>
        <mxCell id="qZe3JoyMZ883tMN5COdx-10" value="10.0.0.41(windows)" style="text;html=1;strokeColor=none;fillColor=none;align=center;verticalAlign=middle;whiteSpace=wrap;rounded=0;dashed=1;dashPattern=1 1;fontColor=#FFFFFF;labelBackgroundColor=#A9C4EB;" vertex="1" parent="qZe3JoyMZ883tMN5COdx-15">
          <mxGeometry x="160" y="180" width="110" height="20" as="geometry" />
        </mxCell>
        <mxCell id="qZe3JoyMZ883tMN5COdx-12" value="MSSQL" style="shape=cylinder;whiteSpace=wrap;html=1;boundedLbl=1;backgroundOutline=1;dashed=1;dashPattern=1 1;fillColor=#d0cee2;strokeColor=#56517e;" vertex="1" parent="qZe3JoyMZ883tMN5COdx-15">
          <mxGeometry x="50" y="40" width="60" height="80" as="geometry" />
        </mxCell>
        <mxCell id="qZe3JoyMZ883tMN5COdx-14" value="&lt;span style=&quot;color: rgb(51 , 51 , 51) ; font-family: &amp;#34;open sans&amp;#34; , &amp;#34;clear sans&amp;#34; , &amp;#34;helvetica neue&amp;#34; , &amp;#34;helvetica&amp;#34; , &amp;#34;arial&amp;#34; , sans-serif ; font-size: 16px ; text-align: left ; white-space: pre-wrap ; background-color: rgb(255 , 255 , 255)&quot;&gt;ERP 业务系统&lt;/span&gt;" style="rounded=1;whiteSpace=wrap;html=1;dashed=1;dashPattern=1 1;labelBackgroundColor=#A9C4EB;strokeColor=#6c8ebf;fontSize=9;fillColor=#dae8fc;" vertex="1" parent="qZe3JoyMZ883tMN5COdx-15">
          <mxGeometry x="210" y="60" width="120" height="60" as="geometry" />
        </mxCell>
        <mxCell id="qZe3JoyMZ883tMN5COdx-13" value="&lt;font style=&quot;font-size: 11px&quot;&gt;ERP&lt;/font&gt;" style="text;html=1;strokeColor=none;fillColor=none;align=center;verticalAlign=middle;whiteSpace=wrap;rounded=0;dashed=1;dashPattern=1 1;fontSize=9;fontColor=#195EFF;" vertex="1" parent="qZe3JoyMZ883tMN5COdx-31">
          <mxGeometry x="60" y="100" width="40" height="20" as="geometry" />
        </mxCell>
        <mxCell id="qZe3JoyMZ883tMN5COdx-32" value="" style="group" vertex="1" connectable="0" parent="1">
          <mxGeometry x="30" y="290" width="440" height="210" as="geometry" />
        </mxCell>
        <mxCell id="qZe3JoyMZ883tMN5COdx-33" value="" style="group" vertex="1" connectable="0" parent="qZe3JoyMZ883tMN5COdx-32">
          <mxGeometry width="440" height="210" as="geometry" />
        </mxCell>
        <mxCell id="qZe3JoyMZ883tMN5COdx-34" value="" style="whiteSpace=wrap;html=1;dashed=1;dashPattern=1 1;strokeColor=#99CCFF;" vertex="1" parent="qZe3JoyMZ883tMN5COdx-33">
          <mxGeometry width="440" height="210" as="geometry" />
        </mxCell>
        <mxCell id="qZe3JoyMZ883tMN5COdx-35" value="10.0.0.43(windows)" style="text;html=1;strokeColor=none;fillColor=none;align=center;verticalAlign=middle;whiteSpace=wrap;rounded=0;dashed=1;dashPattern=1 1;fontColor=#FFFFFF;labelBackgroundColor=#A9C4EB;" vertex="1" parent="qZe3JoyMZ883tMN5COdx-33">
          <mxGeometry x="160" y="180" width="110" height="20" as="geometry" />
        </mxCell>
        <mxCell id="qZe3JoyMZ883tMN5COdx-36" value="MSSQL" style="shape=cylinder;whiteSpace=wrap;html=1;boundedLbl=1;backgroundOutline=1;dashed=1;dashPattern=1 1;fillColor=#d0cee2;strokeColor=#56517e;" vertex="1" parent="qZe3JoyMZ883tMN5COdx-33">
          <mxGeometry x="50" y="40" width="60" height="80" as="geometry" />
        </mxCell>
        <mxCell id="qZe3JoyMZ883tMN5COdx-37" value="&lt;span style=&quot;color: rgb(51 , 51 , 51) ; font-family: &amp;#34;open sans&amp;#34; , &amp;#34;clear sans&amp;#34; , &amp;#34;helvetica neue&amp;#34; , &amp;#34;helvetica&amp;#34; , &amp;#34;arial&amp;#34; , sans-serif ; font-size: 16px ; text-align: left ; white-space: pre-wrap ; background-color: rgb(255 , 255 , 255)&quot;&gt;ERP 业务系统&lt;/span&gt;" style="rounded=1;whiteSpace=wrap;html=1;dashed=1;dashPattern=1 1;labelBackgroundColor=#A9C4EB;strokeColor=#6c8ebf;fontSize=9;fillColor=#dae8fc;" vertex="1" parent="qZe3JoyMZ883tMN5COdx-33">
          <mxGeometry x="205" y="100" width="120" height="60" as="geometry" />
        </mxCell>
        <mxCell id="qZe3JoyMZ883tMN5COdx-63" value="POS 接口" style="rounded=0;whiteSpace=wrap;html=1;dashed=1;labelBackgroundColor=#FFFFFF;strokeColor=#b85450;fontSize=9;dashPattern=1 1;fillColor=#f8cecc;fontColor=#000000;" vertex="1" parent="qZe3JoyMZ883tMN5COdx-33">
          <mxGeometry x="200" y="30" width="130" height="40" as="geometry" />
        </mxCell>
        <mxCell id="qZe3JoyMZ883tMN5COdx-38" value="&lt;font style=&quot;font-size: 11px&quot;&gt;ERP&lt;/font&gt;" style="text;html=1;strokeColor=none;fillColor=none;align=center;verticalAlign=middle;whiteSpace=wrap;rounded=0;dashed=1;dashPattern=1 1;fontSize=9;fontColor=#195EFF;" vertex="1" parent="qZe3JoyMZ883tMN5COdx-32">
          <mxGeometry x="60" y="100" width="40" height="20" as="geometry" />
        </mxCell>
        <mxCell id="qZe3JoyMZ883tMN5COdx-39" value="" style="group;fillColor=#e1d5e7;strokeColor=#AB83BD;" vertex="1" connectable="0" parent="1">
          <mxGeometry x="500" y="40" width="440" height="210" as="geometry" />
        </mxCell>
        <mxCell id="qZe3JoyMZ883tMN5COdx-40" value="" style="group" vertex="1" connectable="0" parent="qZe3JoyMZ883tMN5COdx-39">
          <mxGeometry width="440" height="210" as="geometry" />
        </mxCell>
        <mxCell id="qZe3JoyMZ883tMN5COdx-41" value="" style="whiteSpace=wrap;html=1;dashed=1;dashPattern=1 1;strokeColor=#99CCFF;" vertex="1" parent="qZe3JoyMZ883tMN5COdx-40">
          <mxGeometry width="440" height="210" as="geometry" />
        </mxCell>
        <mxCell id="qZe3JoyMZ883tMN5COdx-42" value="10.0.0.42(windows)" style="text;html=1;strokeColor=none;fillColor=none;align=center;verticalAlign=middle;whiteSpace=wrap;rounded=0;dashed=1;dashPattern=1 1;fontColor=#FFFFFF;labelBackgroundColor=#A9C4EB;" vertex="1" parent="qZe3JoyMZ883tMN5COdx-40">
          <mxGeometry x="160" y="180" width="110" height="20" as="geometry" />
        </mxCell>
        <mxCell id="qZe3JoyMZ883tMN5COdx-43" value="MSSQL" style="shape=cylinder;whiteSpace=wrap;html=1;boundedLbl=1;backgroundOutline=1;dashed=1;dashPattern=1 1;fillColor=#b1ddf0;strokeColor=#10739e;" vertex="1" parent="qZe3JoyMZ883tMN5COdx-40">
          <mxGeometry x="50" y="40" width="60" height="80" as="geometry" />
        </mxCell>
        <mxCell id="qZe3JoyMZ883tMN5COdx-53" value="猫酷接口" style="rounded=0;whiteSpace=wrap;html=1;dashed=1;labelBackgroundColor=#FFFFFF;strokeColor=#b85450;fontSize=9;dashPattern=1 1;fillColor=#f8cecc;fontColor=#000000;" vertex="1" parent="qZe3JoyMZ883tMN5COdx-40">
          <mxGeometry x="190" y="10" width="130" height="40" as="geometry" />
        </mxCell>
        <mxCell id="qZe3JoyMZ883tMN5COdx-61" value="&lt;span&gt;在讯接口&lt;br&gt;&lt;/span&gt;" style="rounded=0;whiteSpace=wrap;html=1;dashed=1;labelBackgroundColor=#FFFFFF;strokeColor=#b85450;fontSize=9;dashPattern=1 1;fillColor=#f8cecc;fontColor=#000000;" vertex="1" parent="qZe3JoyMZ883tMN5COdx-40">
          <mxGeometry x="190" y="55" width="130" height="40" as="geometry" />
        </mxCell>
        <mxCell id="qZe3JoyMZ883tMN5COdx-62" value="&lt;span style=&quot;color: rgb(51 , 51 , 51) ; font-family: &amp;#34;open sans&amp;#34; , &amp;#34;clear sans&amp;#34; , &amp;#34;helvetica neue&amp;#34; , &amp;#34;helvetica&amp;#34; , &amp;#34;arial&amp;#34; , sans-serif ; font-size: 16px ; text-align: left ; white-space: pre-wrap ; background-color: rgb(255 , 255 , 255)&quot;&gt;CRM  业务系统&lt;/span&gt;" style="rounded=1;whiteSpace=wrap;html=1;dashed=1;dashPattern=1 1;labelBackgroundColor=#A9C4EB;strokeColor=#6c8ebf;fontSize=9;fillColor=#dae8fc;" vertex="1" parent="qZe3JoyMZ883tMN5COdx-40">
          <mxGeometry x="196" y="110" width="120" height="60" as="geometry" />
        </mxCell>
        <mxCell id="qZe3JoyMZ883tMN5COdx-45" value="&lt;span style=&quot;font-size: 11px&quot;&gt;CARD&lt;/span&gt;" style="text;html=1;strokeColor=none;fillColor=none;align=center;verticalAlign=middle;whiteSpace=wrap;rounded=0;dashed=1;dashPattern=1 1;fontSize=9;fontColor=#195EFF;" vertex="1" parent="qZe3JoyMZ883tMN5COdx-39">
          <mxGeometry x="60" y="100" width="40" height="20" as="geometry" />
        </mxCell>
        <mxCell id="qZe3JoyMZ883tMN5COdx-46" value="" style="group;fillColor=#bac8d3;strokeColor=#23445d;dashed=1;" vertex="1" connectable="0" parent="1">
          <mxGeometry x="500" y="290" width="440" height="210" as="geometry" />
        </mxCell>
        <mxCell id="qZe3JoyMZ883tMN5COdx-47" value="" style="group" vertex="1" connectable="0" parent="qZe3JoyMZ883tMN5COdx-46">
          <mxGeometry width="440" height="210" as="geometry" />
        </mxCell>
        <mxCell id="qZe3JoyMZ883tMN5COdx-48" value="" style="whiteSpace=wrap;html=1;dashed=1;dashPattern=1 1;strokeColor=#99CCFF;" vertex="1" parent="qZe3JoyMZ883tMN5COdx-47">
          <mxGeometry width="440" height="210" as="geometry" />
        </mxCell>
        <mxCell id="qZe3JoyMZ883tMN5COdx-49" value="10.0.0.46(centOS7)" style="text;html=1;strokeColor=none;fillColor=none;align=center;verticalAlign=middle;whiteSpace=wrap;rounded=0;dashed=1;dashPattern=1 1;fontColor=#FFFFFF;labelBackgroundColor=#A9C4EB;" vertex="1" parent="qZe3JoyMZ883tMN5COdx-47">
          <mxGeometry x="160" y="180.0048275862069" width="110" height="14.482758620689655" as="geometry" />
        </mxCell>
        <mxCell id="qZe3JoyMZ883tMN5COdx-71" value="" style="group" vertex="1" connectable="0" parent="qZe3JoyMZ883tMN5COdx-47">
          <mxGeometry x="50" y="7.24" width="335" height="132.76" as="geometry" />
        </mxCell>
        <mxCell id="qZe3JoyMZ883tMN5COdx-64" value="" style="whiteSpace=wrap;html=1;dashed=1;dashPattern=1 1;labelBackgroundColor=#FFFFFF;strokeColor=#E6D0DE;fontSize=9;fontColor=#000000;" vertex="1" parent="qZe3JoyMZ883tMN5COdx-71">
          <mxGeometry x="-15" y="5" width="352.09" height="132.76" as="geometry" />
        </mxCell>
        <mxCell id="qZe3JoyMZ883tMN5COdx-66" value="注册中心" style="rounded=0;whiteSpace=wrap;html=1;dashed=1;labelBackgroundColor=#FFFFFF;strokeColor=#b85450;fontSize=9;dashPattern=1 1;fillColor=#f8cecc;fontColor=#000000;" vertex="1" parent="qZe3JoyMZ883tMN5COdx-71">
          <mxGeometry x="14.565217391304348" y="12.76" width="131.08695652173913" height="30" as="geometry" />
        </mxCell>
        <mxCell id="qZe3JoyMZ883tMN5COdx-67" value="服务监控" style="rounded=0;whiteSpace=wrap;html=1;dashed=1;labelBackgroundColor=#FFFFFF;strokeColor=#b85450;fontSize=9;dashPattern=1 1;fillColor=#f8cecc;fontColor=#000000;" vertex="1" parent="qZe3JoyMZ883tMN5COdx-71">
          <mxGeometry x="174.7826086956522" y="12.76" width="131.08695652173913" height="30" as="geometry" />
        </mxCell>
        <mxCell id="qZe3JoyMZ883tMN5COdx-68" value="日志收集分析" style="rounded=0;whiteSpace=wrap;html=1;dashed=1;labelBackgroundColor=#FFFFFF;strokeColor=#b85450;fontSize=9;dashPattern=1 1;fillColor=#f8cecc;fontColor=#000000;" vertex="1" parent="qZe3JoyMZ883tMN5COdx-71">
          <mxGeometry x="14.565217391304348" y="52.76" width="131.08695652173913" height="30" as="geometry" />
        </mxCell>
        <mxCell id="qZe3JoyMZ883tMN5COdx-69" value="限流熔断" style="rounded=0;whiteSpace=wrap;html=1;dashed=1;labelBackgroundColor=#FFFFFF;strokeColor=#b85450;fontSize=9;dashPattern=1 1;fillColor=#f8cecc;fontColor=#000000;" vertex="1" parent="qZe3JoyMZ883tMN5COdx-71">
          <mxGeometry x="174.7826086956522" y="52.76" width="131.08695652173913" height="30" as="geometry" />
        </mxCell>
        <mxCell id="qZe3JoyMZ883tMN5COdx-70" value="服务网关" style="rounded=0;whiteSpace=wrap;html=1;dashed=1;labelBackgroundColor=#FFFFFF;strokeColor=#b85450;fontSize=9;dashPattern=1 1;fillColor=#f8cecc;fontColor=#000000;" vertex="1" parent="qZe3JoyMZ883tMN5COdx-71">
          <mxGeometry x="87.3913043478261" y="92.76" width="131.08695652173913" height="30" as="geometry" />
        </mxCell>
        <mxCell id="qZe3JoyMZ883tMN5COdx-72" value="docker 容器" style="text;html=1;strokeColor=none;fillColor=none;align=center;verticalAlign=middle;whiteSpace=wrap;rounded=0;dashed=1;dashPattern=1 1;fontColor=#FFFFFF;labelBackgroundColor=#B5B5B5;" vertex="1" parent="qZe3JoyMZ883tMN5COdx-47">
          <mxGeometry x="160" y="140.0048275862069" width="110" height="14.482758620689655" as="geometry" />
        </mxCell>
        <mxCell id="qZe3JoyMZ883tMN5COdx-76" value="注册中心" style="rounded=0;whiteSpace=wrap;html=1;labelBackgroundColor=#B5B5B5;strokeColor=#7EA6E0;fontSize=9;fontColor=#000000;" vertex="1" parent="1">
          <mxGeometry x="260" y="610" width="120" height="60" as="geometry" />
        </mxCell>
        <mxCell id="qZe3JoyMZ883tMN5COdx-77" value="服务网关" style="rounded=0;whiteSpace=wrap;html=1;labelBackgroundColor=#B5B5B5;strokeColor=#7EA6E0;fontSize=9;fontColor=#000000;" vertex="1" parent="1">
          <mxGeometry x="490" y="650" width="120" height="60" as="geometry" />
        </mxCell>
        <mxCell id="qZe3JoyMZ883tMN5COdx-80" value="猫酷接口" style="rounded=0;whiteSpace=wrap;html=1;labelBackgroundColor=#CCCCFF;strokeColor=#d79b00;fontSize=9;fillColor=#FFF3E3;" vertex="1" parent="1">
          <mxGeometry x="260" y="720" width="120" height="50" as="geometry" />
        </mxCell>
        <mxCell id="qZe3JoyMZ883tMN5COdx-81" value="在讯接口" style="rounded=0;whiteSpace=wrap;html=1;labelBackgroundColor=#CCCCFF;strokeColor=#d79b00;fontSize=9;fillColor=#FFF3E3;" vertex="1" parent="1">
          <mxGeometry x="260" y="777" width="120" height="50" as="geometry" />
        </mxCell>
      </root>
    </mxGraphModel>
  </diagram>
</mxfile>
